<svg xmlns="http://www.w3.org/2000/svg" width="400" height="400" viewBox="0 0 400 400"><rect x="0" y="0" width="400" height="400" fill="#293141"/><g transform="translate(12.537870407140183,244.00000000000017)translate(187.45794677734375,22.130208253860474)rotate(0)translate(-187.45794677734375,-22.130208253860474)" opacity="1"><path transform="translate(6,25.720000000000002)rotate(0)" d="M26.32-24.48L26.32-19.99L6.63-19.99L6.63-19.99Q6.39-19.99 6.39-19.75L6.39-19.75L6.39-4.73L6.39-4.73Q6.39-4.49 6.63-4.49L6.63-4.49L26.32-4.49L26.32 0L6.63 0L6.63 0Q4.66 0 3.28-1.38L3.28-1.38L3.28-1.38Q1.90-2.75 1.90-4.73L1.90-4.73L1.90-19.75L1.90-19.75Q1.90-21.73 3.28-23.10L3.28-23.10L3.28-23.10Q4.66-24.48 6.63-24.48L6.63-24.48L26.32-24.48ZM54.37 0L29.89 0L29.89-24.51L34.37-24.51L34.37-4.49L54.37-4.49L54.37 0ZM61.00-24.48L61.00-24.48L76.02-24.48L76.02-24.48Q77.96-24.48 79.36-23.10L79.36-23.10L79.36-23.10Q80.75-21.73 80.75-19.75L80.75-19.75L80.75-4.73L80.75-4.73Q80.75-2.75 79.36-1.38L79.36-1.38L79.36-1.38Q77.96 0 76.02 0L76.02 0L61.00 0L61.00 0Q59.02 0 57.65-1.38L57.65-1.38L57.65-1.38Q56.27-2.75 56.27-4.73L56.27-4.73L56.27-19.75L56.27-19.75Q56.27-21.73 57.65-23.10L57.65-23.10L57.65-23.10Q59.02-24.48 61.00-24.48ZM61.00-4.49L61.00-4.49L76.02-4.49L76.02-4.49Q76.23-4.49 76.23-4.73L76.23-4.73L76.23-19.75L76.23-19.75Q76.23-19.99 76.02-19.99L76.02-19.99L61.00-19.99L61.00-19.99Q60.76-19.99 60.76-19.75L60.76-19.75L60.76-4.73L60.76-4.73Q60.76-4.49 61.00-4.49ZM104.38-4.73L104.38-4.73L104.38-24.48L108.90-24.48L108.90-4.73L108.90-4.73Q108.90-2.75 107.51-1.38L107.51-1.38L107.51-1.38Q106.11 0 104.18 0L104.18 0L89.15 0L89.15 0Q87.18 0 85.80-1.38L85.80-1.38L85.80-1.38Q84.42-2.75 84.42-4.73L84.42-4.73L84.42-24.48L88.91-24.48L88.91-4.73L88.91-4.73Q88.91-4.49 89.15-4.49L89.15-4.49L104.18-4.49L104.18-4.49Q104.38-4.49 104.38-4.73ZM112.71 0L112.71-24.48L132.43-24.48L132.43-24.48Q134.40-24.48 135.80-23.10L135.80-23.10L135.80-23.10Q137.19-21.73 137.19-19.75L137.19-19.75L137.19-4.73L137.19-4.73Q137.19-2.75 135.80-1.38L135.80-1.38L135.80-1.38Q134.40 0 132.43 0L132.43 0L112.71 0ZM132.67-4.73L132.67-4.73L132.67-19.75L132.67-19.75Q132.67-19.99 132.43-19.99L132.43-19.99L117.44-19.99L117.44-19.99Q117.20-19.99 117.20-19.75L117.20-19.75L117.20-4.73L117.20-4.73Q117.20-4.49 117.44-4.49L117.44-4.49L132.43-4.49L132.43-4.49Q132.67-4.49 132.67-4.73ZM141.07-24.48L163.57-24.48L163.57-19.99L145.59-19.99L145.59-14.48L160.07-14.48L160.07-10.00L145.59-10.00L145.59-4.49L163.57-4.49L163.57 0L141.07 0L141.07-24.48ZM171.53-24.48L182.51-5.44L193.46-24.48L198.66-24.48L184.52 0L180.47 0L166.33-24.48L171.53-24.48ZM205.80-24.48L205.80-24.48L220.83-24.48L220.83-24.48Q222.77-24.48 224.16-23.10L224.16-23.10L224.16-23.10Q225.56-21.73 225.56-19.75L225.56-19.75L225.56-4.73L225.56-4.73Q225.56-2.75 224.16-1.38L224.16-1.38L224.16-1.38Q222.77 0 220.83 0L220.83 0L205.80 0L205.80 0Q203.83 0 202.45-1.38L202.45-1.38L202.45-1.38Q201.08-2.75 201.08-4.73L201.08-4.73L201.08-19.75L201.08-19.75Q201.08-21.73 202.45-23.10L202.45-23.10L202.45-23.10Q203.83-24.48 205.80-24.48ZM205.80-4.49L205.80-4.49L220.83-4.49L220.83-4.49Q221.03-4.49 221.03-4.73L221.03-4.73L221.03-19.75L221.03-19.75Q221.03-19.99 220.83-19.99L220.83-19.99L205.80-19.99L205.80-19.99Q205.56-19.99 205.56-19.75L205.56-19.75L205.56-4.73L205.56-4.73Q205.56-4.49 205.80-4.49ZM253.81 0L229.33 0L229.33-24.51L233.82-24.51L233.82-4.49L253.81-4.49L253.81 0ZM260.27-24.48L271.25-5.44L282.20-24.48L287.40-24.48L273.26 0L269.21 0L255.07-24.48L260.27-24.48ZM289.95-24.48L312.46-24.48L312.46-19.99L294.47-19.99L294.47-14.48L308.96-14.48L308.96-10.00L294.47-10.00L294.47-4.49L312.46-4.49L312.46 0L289.95 0L289.95-24.48ZM340.37-19.72L340.37-19.72L340.37-13.12L340.37-13.12Q340.37-11.19 338.98-9.79L338.98-9.79L338.98-9.79Q337.59-8.40 335.61-8.40L335.61-8.40L334.29-8.40L340.37-1.16L340.37 0L335.48 0L328.41-8.40L320.48-8.40L320.38-8.40L320.38 0L315.89 0L315.89-24.45L335.61-24.45L335.61-24.45Q337.59-24.45 338.98-23.05L338.98-23.05L338.98-23.05Q340.37-21.66 340.37-19.72ZM320.62-12.89L320.62-12.89L335.61-12.89L335.61-12.89Q335.85-12.89 335.85-13.12L335.85-13.12L335.85-19.72L335.85-19.72Q335.85-19.96 335.61-19.96L335.61-19.96L320.62-19.96L320.62-19.96Q320.38-19.96 320.38-19.72L320.38-19.72L320.38-13.12L320.38-13.12Q320.38-12.89 320.62-12.89ZM368.29-19.75L368.29-19.75L368.29-17.88L363.77-17.88L363.77-19.75L363.77-19.75Q363.77-19.99 363.56-19.99L363.56-19.99L348.53-19.99L348.53-19.99Q348.30-19.99 348.30-19.75L348.30-19.75L348.30-14.72L348.30-14.72Q348.30-14.48 348.53-14.48L348.53-14.48L363.56-14.48L363.56-14.48Q365.50-14.48 366.89-13.11L366.89-13.11L366.89-13.11Q368.29-11.73 368.29-9.76L368.29-9.76L368.29-4.73L368.29-4.73Q368.29-2.75 366.89-1.38L366.89-1.38L366.89-1.38Q365.50 0 363.56 0L363.56 0L348.53 0L348.53 0Q346.56 0 345.19-1.38L345.19-1.38L345.19-1.38Q343.81-2.75 343.81-4.73L343.81-4.73L343.81-6.60L348.30-6.60L348.30-4.73L348.30-4.73Q348.30-4.49 348.53-4.49L348.53-4.49L363.56-4.49L363.56-4.49Q363.77-4.49 363.77-4.73L363.77-4.73L363.77-9.76L363.77-9.76Q363.77-10.00 363.56-10.00L363.56-10.00L348.53-10.00L348.53-10.00Q346.56-10.00 345.19-11.37L345.19-11.37L345.19-11.37Q343.81-12.75 343.81-14.72L343.81-14.72L343.81-19.75L343.81-19.75Q343.81-21.73 345.19-23.10L345.19-23.10L345.19-23.10Q346.56-24.48 348.53-24.48L348.53-24.48L363.56-24.48L363.56-24.48Q365.50-24.48 366.89-23.10L366.89-23.10L366.89-23.10Q368.29-21.73 368.29-19.75Z" fill="#ffffff"/></g><g transform="translate(53.54588127139805,303.00000000000006)translate(148.94993591308594,39.999999940395355)rotate(0)translate(-148.94993591308594,-39.999999940395355)" opacity="1"><path transform="translate(20,14.6)rotate(0)" d="M3.34-14.40L9.32-7.28L15.30-14.40L17.52-14.40L17.52 0L15.90 0L15.90-12.56L9.32-4.74L2.74-12.56L2.74 0L1.12 0L1.12-14.40L3.34-14.40ZM36.04-14.40L36.04-12.78L24.08-12.78L24.08-12.78Q23.76-12.78 23.53-12.55L23.53-12.55L23.53-12.55Q23.30-12.32 23.30-12L23.30-12L23.30-2.40L23.30-2.40Q23.30-2.08 23.53-1.85L23.53-1.85L23.53-1.85Q23.76-1.62 24.08-1.62L24.08-1.62L36.04-1.62L36.04 0L24.08 0L24.08 0Q23.08 0 22.38-0.70L22.38-0.70L22.38-0.70Q21.68-1.40 21.68-2.40L21.68-2.40L21.68-12L21.68-12Q21.68-13 22.38-13.70L22.38-13.70L22.38-13.70Q23.08-14.40 24.08-14.40L24.08-14.40L36.04-14.40ZM39.40-12.78L39.40-14.40L53.80-14.40L53.80-12.78L47.42-12.78L47.42 0L45.80 0L45.80-12.78L39.40-12.78ZM57.36-6.74L65.16-6.74L65.16-5.10L57.36-5.10L57.36-6.74ZM84.06 0L69.66 0L69.66-14.42L71.28-14.42L71.28-1.62L84.06-1.62L84.06 0ZM87.26-14.40L100.40-14.40L100.40-12.78L88.88-12.78L88.88-8.02L98.14-8.02L98.14-6.38L88.88-6.38L88.88-1.62L100.40-1.62L100.40 0L87.26 0L87.26-14.40ZM104.58 0L104.58-14.40L116.58-14.40L116.58-14.40Q117.58-14.40 118.28-13.70L118.28-13.70L118.28-13.70Q118.98-13 118.98-12L118.98-12L118.98-2.40L118.98-2.40Q118.98-1.40 118.28-0.70L118.28-0.70L118.28-0.70Q117.58 0 116.58 0L116.58 0L104.58 0ZM117.36-2.40L117.36-2.40L117.36-12L117.36-12Q117.36-12.32 117.13-12.55L117.13-12.55L117.13-12.55Q116.90-12.78 116.58-12.78L116.58-12.78L106.98-12.78L106.98-12.78Q106.66-12.78 106.43-12.55L106.43-12.55L106.43-12.55Q106.20-12.32 106.20-12L106.20-12L106.20-2.40L106.20-2.40Q106.20-2.08 106.43-1.85L106.43-1.85L106.43-1.85Q106.66-1.62 106.98-1.62L106.98-1.62L116.58-1.62L116.58-1.62Q116.90-1.62 117.13-1.85L117.13-1.85L117.13-1.85Q117.36-2.08 117.36-2.40ZM129.94-12.78L129.94-14.40L144.34-14.40L144.34-12.78L137.96-12.78L137.96 0L136.34 0L136.34-12.78L129.94-12.78ZM162.22-11.98L162.22-11.98L162.22-7.76L162.22-7.76Q162.22-6.76 161.52-6.06L161.52-6.06L161.52-6.06Q160.82-5.36 159.82-5.36L159.82-5.36L157.62-5.36L162.14 0L160 0L155.50-5.36L150.22-5.36L150.22-5.36Q150.04-5.36 149.44-5.44L149.44-5.44L149.44 0L147.82 0L147.82-14.38L159.82-14.38L159.82-14.38Q160.82-14.38 161.52-13.68L161.52-13.68L161.52-13.68Q162.22-12.98 162.22-11.98ZM150.22-7L150.22-7L159.82-7L159.82-7Q160.14-7 160.36-7.22L160.36-7.22L160.36-7.22Q160.58-7.44 160.58-7.76L160.58-7.76L160.58-11.98L160.58-11.98Q160.58-12.30 160.36-12.53L160.36-12.53L160.36-12.53Q160.14-12.76 159.82-12.76L159.82-12.76L150.22-12.76L150.22-12.76Q149.90-12.76 149.67-12.53L149.67-12.53L149.67-12.53Q149.44-12.30 149.44-11.98L149.44-11.98L149.44-7.76L149.44-7.76Q149.44-7.44 149.67-7.22L149.67-7.22L149.67-7.22Q149.90-7 150.22-7ZM168.78-14.40L168.78-14.40L178.38-14.40L178.38-14.40Q179.38-14.40 180.08-13.70L180.08-13.70L180.08-13.70Q180.78-13 180.78-12L180.78-12L180.78 0L179.16 0L179.16-5.26L168-5.26L168 0L166.38 0L166.38-12L166.38-12Q166.38-13 167.08-13.70L167.08-13.70L167.08-13.70Q167.78-14.40 168.78-14.40ZM168-12L168-6.88L179.16-6.88L179.16-12L179.16-12Q179.16-12.32 178.93-12.55L178.93-12.55L178.93-12.55Q178.70-12.78 178.38-12.78L178.38-12.78L168.78-12.78L168.78-12.78Q168.46-12.78 168.23-12.55L168.23-12.55L168.23-12.55Q168-12.32 168-12L168-12ZM186.70 0L185.08 0L185.08-14.40L186.70-14.40L186.70 0ZM193.68-14.40L204.24-1.84L204.24-14.40L205.86-14.40L205.86 0L203.64 0L193.08-12.56L193.08 0L191.46 0L191.46-14.40L193.68-14.40ZM211.74 0L210.12 0L210.12-14.40L211.74-14.40L211.74 0ZM218.72-14.40L229.28-1.84L229.28-14.40L230.90-14.40L230.90 0L228.68 0L218.12-12.56L218.12 0L216.50 0L216.50-14.40L218.72-14.40ZM249.54-12L249.54-12L249.54-11.42L247.92-11.42L247.92-12L247.92-12Q247.92-12.32 247.69-12.55L247.69-12.55L247.69-12.55Q247.46-12.78 247.14-12.78L247.14-12.78L237.54-12.78L237.54-12.78Q237.22-12.78 236.99-12.55L236.99-12.55L236.99-12.55Q236.76-12.32 236.76-12L236.76-12L236.76-2.40L236.76-2.40Q236.76-2.08 236.99-1.85L236.99-1.85L236.99-1.85Q237.22-1.62 237.54-1.62L237.54-1.62L247.14-1.62L247.14-1.62Q247.46-1.62 247.69-1.85L247.69-1.85L247.69-1.85Q247.92-2.08 247.92-2.40L247.92-2.40L247.92-5.96L244.36-5.96L244.36-7.60L249.54-7.60L249.54-2.40L249.54-2.40Q249.54-1.40 248.84-0.70L248.84-0.70L248.84-0.70Q248.14 0 247.14 0L247.14 0L237.54 0L237.54 0Q236.54 0 235.84-0.70L235.84-0.70L235.84-0.70Q235.14-1.40 235.14-2.40L235.14-2.40L235.14-12L235.14-12Q235.14-13 235.84-13.70L235.84-13.70L235.84-13.70Q236.54-14.40 237.54-14.40L237.54-14.40L247.14-14.40L247.14-14.40Q248.14-14.40 248.84-13.70L248.84-13.70L248.84-13.70Q249.54-13 249.54-12Z" fill="#ffffff"/><path transform="translate(6,41.26666662693024)rotate(0)" d="M3.56-14.40L3.56-14.40L13.16-14.40L13.16-14.40Q14.16-14.40 14.86-13.70L14.86-13.70L14.86-13.70Q15.56-13 15.56-12L15.56-12L15.56 0L13.94 0L13.94-5.26L2.78-5.26L2.78 0L1.16 0L1.16-12L1.16-12Q1.16-13 1.86-13.70L1.86-13.70L1.86-13.70Q2.56-14.40 3.56-14.40ZM2.78-12L2.78-6.88L13.94-6.88L13.94-12L13.94-12Q13.94-12.32 13.71-12.55L13.71-12.55L13.71-12.55Q13.48-12.78 13.16-12.78L13.16-12.78L3.56-12.78L3.56-12.78Q3.24-12.78 3.01-12.55L3.01-12.55L3.01-12.55Q2.78-12.32 2.78-12L2.78-12ZM32.30-12.78L19.74-12.78L19.74-14.40L34.14-14.40L34.14-12.18L21.58-1.62L34.14-1.62L34.14 0L19.74 0L19.74-2.22L32.30-12.78ZM51-2.40L51-2.40L51-14.40L52.62-14.40L52.62-2.40L52.62-2.40Q52.62-1.40 51.92-0.70L51.92-0.70L51.92-0.70Q51.22 0 50.22 0L50.22 0L40.62 0L40.62 0Q39.62 0 38.92-0.70L38.92-0.70L38.92-0.70Q38.22-1.40 38.22-2.40L38.22-2.40L38.22-14.40L39.84-14.40L39.84-2.40L39.84-2.40Q39.84-2.08 40.07-1.85L40.07-1.85L40.07-1.85Q40.30-1.62 40.62-1.62L40.62-1.62L50.22-1.62L50.22-1.62Q50.54-1.62 50.77-1.85L50.77-1.85L50.77-1.85Q51-2.08 51-2.40ZM71.20-11.98L71.20-11.98L71.20-7.76L71.20-7.76Q71.20-6.76 70.50-6.06L70.50-6.06L70.50-6.06Q69.80-5.36 68.80-5.36L68.80-5.36L66.60-5.36L71.12 0L68.98 0L64.48-5.36L59.20-5.36L59.20-5.36Q59.02-5.36 58.42-5.44L58.42-5.44L58.42 0L56.80 0L56.80-14.38L68.80-14.38L68.80-14.38Q69.80-14.38 70.50-13.68L70.50-13.68L70.50-13.68Q71.20-12.98 71.20-11.98ZM59.20-7L59.20-7L68.80-7L68.80-7Q69.12-7 69.34-7.22L69.34-7.22L69.34-7.22Q69.56-7.44 69.56-7.76L69.56-7.76L69.56-11.98L69.56-11.98Q69.56-12.30 69.34-12.53L69.34-12.53L69.34-12.53Q69.12-12.76 68.80-12.76L68.80-12.76L59.20-12.76L59.20-12.76Q58.88-12.76 58.65-12.53L58.65-12.53L58.65-12.53Q58.42-12.30 58.42-11.98L58.42-11.98L58.42-7.76L58.42-7.76Q58.42-7.44 58.65-7.22L58.65-7.22L58.65-7.22Q58.88-7 59.20-7ZM75.36-14.40L88.50-14.40L88.50-12.78L76.98-12.78L76.98-8.02L86.24-8.02L86.24-6.38L76.98-6.38L76.98-1.62L88.50-1.62L88.50 0L75.36 0L75.36-14.40ZM114.56-6.66L114.56-3.34L117.24-1.76L117.24-0.32L114.50-1.86L114.50-1.86Q114.16-1.02 113.53-0.51L113.53-0.51L113.53-0.51Q112.90 0 112.14 0L112.14 0L102.44 0L102.44 0Q101.44 0 100.73-0.71L100.73-0.71L100.73-0.71Q100.02-1.42 100.02-2.42L100.02-2.42L100.02-6.72L100.02-6.72Q100.02-7.16 100.56-7.59L100.56-7.59L100.56-7.59Q101.10-8.02 102.00-8.02L102.00-8.02L102.00-8.02Q100.86-8.88 100.86-9.94L100.86-9.94L100.86-11.94L100.86-11.94Q100.86-12.96 101.57-13.67L101.57-13.67L101.57-13.67Q102.28-14.38 103.28-14.38L103.28-14.38L111.50-14.38L111.50-14.38Q112.32-14.38 113.01-13.77L113.01-13.77L113.01-13.77Q113.70-13.16 113.94-12.34L113.94-12.34L113.94-11.24L112.28-11.24L112.28-11.92L112.28-11.92Q112.28-12.24 112.05-12.47L112.05-12.47L112.05-12.47Q111.82-12.70 111.50-12.70L111.50-12.70L103.28-12.70L103.28-12.70Q102.96-12.70 102.73-12.47L102.73-12.47L102.73-12.47Q102.50-12.24 102.50-11.92L102.50-11.92L102.50-9.14L112.92-3.88L112.92-6.66L114.56-6.66ZM102.44-1.64L102.44-1.64L112.14-1.64L112.14-1.64Q112.36-1.64 112.58-1.84L112.58-1.84L112.58-1.84Q112.80-2.04 112.94-2.36L112.94-2.36L102.74-7.50L102.44-7.50L102.44-7.50Q102.12-7.50 101.89-7.27L101.89-7.27L101.89-7.27Q101.66-7.04 101.66-6.72L101.66-6.72L101.66-2.42L101.66-2.42Q101.66-2.10 101.89-1.87L101.89-1.87L101.89-1.87Q102.12-1.64 102.44-1.64ZM130.50-14.40L136.48-7.28L142.46-14.40L144.68-14.40L144.68 0L143.06 0L143.06-12.56L136.48-4.74L129.90-12.56L129.90 0L128.28 0L128.28-14.40L130.50-14.40ZM150.48 0L148.86 0L148.86-14.40L150.48-14.40L150.48 0ZM169.60-14.40L169.60-12.78L157.64-12.78L157.64-12.78Q157.32-12.78 157.09-12.55L157.09-12.55L157.09-12.55Q156.86-12.32 156.86-12L156.86-12L156.86-2.40L156.86-2.40Q156.86-2.08 157.09-1.85L157.09-1.85L157.09-1.85Q157.32-1.62 157.64-1.62L157.64-1.62L169.60-1.62L169.60 0L157.64 0L157.64 0Q156.64 0 155.94-0.70L155.94-0.70L155.94-0.70Q155.24-1.40 155.24-2.40L155.24-2.40L155.24-12L155.24-12Q155.24-13 155.94-13.70L155.94-13.70L155.94-13.70Q156.64-14.40 157.64-14.40L157.64-14.40L169.60-14.40ZM188.06-11.98L188.06-11.98L188.06-7.76L188.06-7.76Q188.06-6.76 187.36-6.06L187.36-6.06L187.36-6.06Q186.66-5.36 185.66-5.36L185.66-5.36L183.46-5.36L187.98 0L185.84 0L181.34-5.36L176.06-5.36L176.06-5.36Q175.88-5.36 175.28-5.44L175.28-5.44L175.28 0L173.66 0L173.66-14.38L185.66-14.38L185.66-14.38Q186.66-14.38 187.36-13.68L187.36-13.68L187.36-13.68Q188.06-12.98 188.06-11.98ZM176.06-7L176.06-7L185.66-7L185.66-7Q185.98-7 186.20-7.22L186.20-7.22L186.20-7.22Q186.42-7.44 186.42-7.76L186.42-7.76L186.42-11.98L186.42-11.98Q186.42-12.30 186.20-12.53L186.20-12.53L186.20-12.53Q185.98-12.76 185.66-12.76L185.66-12.76L176.06-12.76L176.06-12.76Q175.74-12.76 175.51-12.53L175.51-12.53L175.51-12.53Q175.28-12.30 175.28-11.98L175.28-11.98L175.28-7.76L175.28-7.76Q175.28-7.44 175.51-7.22L175.51-7.22L175.51-7.22Q175.74-7 176.06-7ZM194.54-14.40L194.54-14.40L204.14-14.40L204.14-14.40Q205.14-14.40 205.84-13.70L205.84-13.70L205.84-13.70Q206.54-13 206.54-12L206.54-12L206.54-2.40L206.54-2.40Q206.54-1.40 205.84-0.70L205.84-0.70L205.84-0.70Q205.14 0 204.14 0L204.14 0L194.54 0L194.54 0Q193.54 0 192.84-0.70L192.84-0.70L192.84-0.70Q192.14-1.40 192.14-2.40L192.14-2.40L192.14-12L192.14-12Q192.14-13 192.84-13.70L192.84-13.70L192.84-13.70Q193.54-14.40 194.54-14.40ZM194.54-1.62L194.54-1.62L204.14-1.62L204.14-1.62Q204.46-1.62 204.69-1.85L204.69-1.85L204.69-1.85Q204.92-2.08 204.92-2.40L204.92-2.40L204.92-12L204.92-12Q204.92-12.32 204.69-12.55L204.69-12.55L204.69-12.55Q204.46-12.78 204.14-12.78L204.14-12.78L194.54-12.78L194.54-12.78Q194.22-12.78 193.99-12.55L193.99-12.55L193.99-12.55Q193.76-12.32 193.76-12L193.76-12L193.76-2.40L193.76-2.40Q193.76-2.08 193.99-1.85L193.99-1.85L193.99-1.85Q194.22-1.62 194.54-1.62ZM225.04-12L225.04-12L225.04-11.44L223.42-11.44L223.42-12L223.42-12Q223.42-12.32 223.19-12.55L223.19-12.55L223.19-12.55Q222.96-12.78 222.64-12.78L222.64-12.78L213.04-12.78L213.04-12.78Q212.72-12.78 212.49-12.55L212.49-12.55L212.49-12.55Q212.26-12.32 212.26-12L212.26-12L212.26-8.78L212.26-8.78Q212.26-8.46 212.49-8.24L212.49-8.24L212.49-8.24Q212.72-8.02 213.04-8.02L213.04-8.02L222.64-8.02L222.64-8.02Q223.64-8.02 224.34-7.32L224.34-7.32L224.34-7.32Q225.04-6.62 225.04-5.62L225.04-5.62L225.04-2.40L225.04-2.40Q225.04-1.40 224.34-0.70L224.34-0.70L224.34-0.70Q223.64 0 222.64 0L222.64 0L213.04 0L213.04 0Q212.04 0 211.34-0.70L211.34-0.70L211.34-0.70Q210.64-1.40 210.64-2.40L210.64-2.40L210.64-2.96L212.26-2.96L212.26-2.40L212.26-2.40Q212.26-2.08 212.49-1.85L212.49-1.85L212.49-1.85Q212.72-1.62 213.04-1.62L213.04-1.62L222.64-1.62L222.64-1.62Q222.96-1.62 223.19-1.85L223.19-1.85L223.19-1.85Q223.42-2.08 223.42-2.40L223.42-2.40L223.42-5.62L223.42-5.62Q223.42-5.94 223.19-6.16L223.19-6.16L223.19-6.16Q222.96-6.38 222.64-6.38L222.64-6.38L213.04-6.38L213.04-6.38Q212.04-6.38 211.34-7.08L211.34-7.08L211.34-7.08Q210.64-7.78 210.64-8.78L210.64-8.78L210.64-12L210.64-12Q210.64-13 211.34-13.70L211.34-13.70L211.34-13.70Q212.04-14.40 213.04-14.40L213.04-14.40L222.64-14.40L222.64-14.40Q223.64-14.40 224.34-13.70L224.34-13.70L224.34-13.70Q225.04-13 225.04-12ZM231.54-14.40L231.54-14.40L241.14-14.40L241.14-14.40Q242.14-14.40 242.84-13.70L242.84-13.70L242.84-13.70Q243.54-13 243.54-12L243.54-12L243.54-2.40L243.54-2.40Q243.54-1.40 242.84-0.70L242.84-0.70L242.84-0.70Q242.14 0 241.14 0L241.14 0L231.54 0L231.54 0Q230.54 0 229.84-0.70L229.84-0.70L229.84-0.70Q229.14-1.40 229.14-2.40L229.14-2.40L229.14-12L229.14-12Q229.14-13 229.84-13.70L229.84-13.70L229.84-13.70Q230.54-14.40 231.54-14.40ZM231.54-1.62L231.54-1.62L241.14-1.62L241.14-1.62Q241.46-1.62 241.69-1.85L241.69-1.85L241.69-1.85Q241.92-2.08 241.92-2.40L241.92-2.40L241.92-12L241.92-12Q241.92-12.32 241.69-12.55L241.69-12.55L241.69-12.55Q241.46-12.78 241.14-12.78L241.14-12.78L231.54-12.78L231.54-12.78Q231.22-12.78 230.99-12.55L230.99-12.55L230.99-12.55Q230.76-12.32 230.76-12L230.76-12L230.76-2.40L230.76-2.40Q230.76-2.08 230.99-1.85L230.99-1.85L230.99-1.85Q231.22-1.62 231.54-1.62ZM247.78 0L247.78-14.40L260.92-14.40L260.92-12.78L249.40-12.78L249.40-8.02L258.66-8.02L258.66-6.38L249.40-6.38L249.40 0L247.78 0ZM263.48-12.78L263.48-14.40L277.88-14.40L277.88-12.78L271.50-12.78L271.50 0L269.88 0L269.88-12.78L263.48-12.78Z" fill="#ffffff"/><path transform="translate(82,67.93333325386047)rotate(0)" d="M15.42-12L15.42-12L15.42-11.44L13.80-11.44L13.80-12L13.80-12Q13.80-12.32 13.57-12.55L13.57-12.55L13.57-12.55Q13.34-12.78 13.02-12.78L13.02-12.78L3.42-12.78L3.42-12.78Q3.10-12.78 2.87-12.55L2.87-12.55L2.87-12.55Q2.64-12.32 2.64-12L2.64-12L2.64-8.78L2.64-8.78Q2.64-8.46 2.87-8.24L2.87-8.24L2.87-8.24Q3.10-8.02 3.42-8.02L3.42-8.02L13.02-8.02L13.02-8.02Q14.02-8.02 14.72-7.32L14.72-7.32L14.72-7.32Q15.42-6.62 15.42-5.62L15.42-5.62L15.42-2.40L15.42-2.40Q15.42-1.40 14.72-0.70L14.72-0.70L14.72-0.70Q14.02 0 13.02 0L13.02 0L3.42 0L3.42 0Q2.42 0 1.72-0.70L1.72-0.70L1.72-0.70Q1.02-1.40 1.02-2.40L1.02-2.40L1.02-2.96L2.64-2.96L2.64-2.40L2.64-2.40Q2.64-2.08 2.87-1.85L2.87-1.85L2.87-1.85Q3.10-1.62 3.42-1.62L3.42-1.62L13.02-1.62L13.02-1.62Q13.34-1.62 13.57-1.85L13.57-1.85L13.57-1.85Q13.80-2.08 13.80-2.40L13.80-2.40L13.80-5.62L13.80-5.62Q13.80-5.94 13.57-6.16L13.57-6.16L13.57-6.16Q13.34-6.38 13.02-6.38L13.02-6.38L3.42-6.38L3.42-6.38Q2.42-6.38 1.72-7.08L1.72-7.08L1.72-7.08Q1.02-7.78 1.02-8.78L1.02-8.78L1.02-12L1.02-12Q1.02-13 1.72-13.70L1.72-13.70L1.72-13.70Q2.42-14.40 3.42-14.40L3.42-14.40L13.02-14.40L13.02-14.40Q14.02-14.40 14.72-13.70L14.72-13.70L14.72-13.70Q15.42-13 15.42-12ZM19.60-14.40L32.74-14.40L32.74-12.78L21.22-12.78L21.22-8.02L30.48-8.02L30.48-6.38L21.22-6.38L21.22-1.62L32.74-1.62L32.74 0L19.60 0L19.60-14.40ZM51.26-11.98L51.26-11.98L51.26-7.76L51.26-7.76Q51.26-6.76 50.56-6.06L50.56-6.06L50.56-6.06Q49.86-5.36 48.86-5.36L48.86-5.36L46.66-5.36L51.18 0L49.04 0L44.54-5.36L39.26-5.36L39.26-5.36Q39.08-5.36 38.48-5.44L38.48-5.44L38.48 0L36.86 0L36.86-14.38L48.86-14.38L48.86-14.38Q49.86-14.38 50.56-13.68L50.56-13.68L50.56-13.68Q51.26-12.98 51.26-11.98ZM39.26-7L39.26-7L48.86-7L48.86-7Q49.18-7 49.40-7.22L49.40-7.22L49.40-7.22Q49.62-7.44 49.62-7.76L49.62-7.76L49.62-11.98L49.62-11.98Q49.62-12.30 49.40-12.53L49.40-12.53L49.40-12.53Q49.18-12.76 48.86-12.76L48.86-12.76L39.26-12.76L39.26-12.76Q38.94-12.76 38.71-12.53L38.71-12.53L38.71-12.53Q38.48-12.30 38.48-11.98L38.48-11.98L38.48-7.76L38.48-7.76Q38.48-7.44 38.71-7.22L38.71-7.22L38.71-7.22Q38.94-7 39.26-7ZM56.86-14.40L64.24-1.58L71.60-14.40L73.50-14.40L65.18 0L63.30 0L54.96-14.40L56.86-14.40ZM79.08 0L77.46 0L77.46-14.40L79.08-14.40L79.08 0ZM98.20-14.40L98.20-12.78L86.24-12.78L86.24-12.78Q85.92-12.78 85.69-12.55L85.69-12.55L85.69-12.55Q85.46-12.32 85.46-12L85.46-12L85.46-2.40L85.46-2.40Q85.46-2.08 85.69-1.85L85.69-1.85L85.69-1.85Q85.92-1.62 86.24-1.62L86.24-1.62L98.20-1.62L98.20 0L86.24 0L86.24 0Q85.24 0 84.54-0.70L84.54-0.70L84.54-0.70Q83.84-1.40 83.84-2.40L83.84-2.40L83.84-12L83.84-12Q83.84-13 84.54-13.70L84.54-13.70L84.54-13.70Q85.24-14.40 86.24-14.40L86.24-14.40L98.20-14.40ZM102.32-14.40L115.46-14.40L115.46-12.78L103.94-12.78L103.94-8.02L113.20-8.02L113.20-6.38L103.94-6.38L103.94-1.62L115.46-1.62L115.46 0L102.32 0L102.32-14.40ZM133.90-12L133.90-12L133.90-11.44L132.28-11.44L132.28-12L132.28-12Q132.28-12.32 132.05-12.55L132.05-12.55L132.05-12.55Q131.82-12.78 131.50-12.78L131.50-12.78L121.90-12.78L121.90-12.78Q121.58-12.78 121.35-12.55L121.35-12.55L121.35-12.55Q121.12-12.32 121.12-12L121.12-12L121.12-8.78L121.12-8.78Q121.12-8.46 121.35-8.24L121.35-8.24L121.35-8.24Q121.58-8.02 121.90-8.02L121.90-8.02L131.50-8.02L131.50-8.02Q132.50-8.02 133.20-7.32L133.20-7.32L133.20-7.32Q133.90-6.62 133.90-5.62L133.90-5.62L133.90-2.40L133.90-2.40Q133.90-1.40 133.20-0.70L133.20-0.70L133.20-0.70Q132.50 0 131.50 0L131.50 0L121.90 0L121.90 0Q120.90 0 120.20-0.70L120.20-0.70L120.20-0.70Q119.50-1.40 119.50-2.40L119.50-2.40L119.50-2.96L121.12-2.96L121.12-2.40L121.12-2.40Q121.12-2.08 121.35-1.85L121.35-1.85L121.35-1.85Q121.58-1.62 121.90-1.62L121.90-1.62L131.50-1.62L131.50-1.62Q131.82-1.62 132.05-1.85L132.05-1.85L132.05-1.85Q132.28-2.08 132.28-2.40L132.28-2.40L132.28-5.62L132.28-5.62Q132.28-5.94 132.05-6.16L132.05-6.16L132.05-6.16Q131.82-6.38 131.50-6.38L131.50-6.38L121.90-6.38L121.90-6.38Q120.90-6.38 120.20-7.08L120.20-7.08L120.20-7.08Q119.50-7.78 119.50-8.78L119.50-8.78L119.50-12L119.50-12Q119.50-13 120.20-13.70L120.20-13.70L120.20-13.70Q120.90-14.40 121.90-14.40L121.90-14.40L131.50-14.40L131.50-14.40Q132.50-14.40 133.20-13.70L133.20-13.70L133.20-13.70Q133.90-13 133.90-12Z" fill="#ffffff"/></g><g transform="translate(144.72897196261687,93.3831775700935)translate(57.80841121495326,57.80841121495326)rotate(0)translate(-57.80841121495326,-57.80841121495326) scale(0.9722480589815293,0.9722480589815293)" opacity="1"><defs class="defs"/><path fill="#FFFFFF" d="M70.268,80.453c2.523-0.511,5.014-1.063,7.465-1.656c-31.299,3.421-58.781,0.915-76.281-6.418&#10;&#9;c-0.084-0.382-0.184-0.759-0.262-1.146C-5.312,39.053,15.502,7.694,47.686,1.189c32.18-6.502,63.539,14.314,70.041,46.495&#10;&#9;c6.504,32.184-14.313,63.542-46.494,70.043c-28.668,5.793-56.666-10.103-67.039-36.391C22.274,85.411,45.604,85.437,70.268,80.453z" class="color c1"/><path fill="#1A2E3C" d="M79.624,112.665c-0.109,0.042-0.225,0.083-0.338,0.128l-1.266,0.449c0.678-0.24,1.334-0.551,2.027-0.756&#10;&#9;C80.016,112.506,79.768,112.607,79.624,112.665 M90.229,103.518c-1.816,1.984-3.563,2.812-4.139,3.079&#10;&#9;c0.584-0.537,0.584-0.537,1.961-2.436c0.527,0.146,1.174-0.075,2.297-0.773C90.313,103.425,90.266,103.481,90.229,103.518&#10;&#9; M96.692,97.906c-1.307,1.695-2.096,2.721-3.406,3.242c0.77-0.969,1.197-2.133,1.828-3.185c0.105,0.166,0.002,0.364,0.088,0.533&#10;&#9;c0.221,0.271,0.668-0.004,1.586-0.718C96.76,97.816,96.719,97.869,96.692,97.906 M102.952,91.179&#10;&#9;c-1.084,1.763-1.938,3.159-3.213,3.766c0.967-1.681,1.293-2.247,1.043-2.607c0.732-0.132,1.369-0.396,2.264-1.308&#10;&#9;C103.014,91.075,102.979,91.132,102.952,91.179 M108.157,88.044c-1.096,1.938-1.096,1.938-1.209,2.097&#10;&#9;c-0.355,0.51-0.629,0.626-0.666,0.544c-0.012-0.022-0.006-0.058-0.004-0.082c0.109-0.544,0.439-0.99,0.645-1.489&#10;&#9;c0.307-0.003,0.664-0.327,1.277-1.148C108.188,87.99,108.17,88.02,108.157,88.044 M113.084,78.729l0.818-2.432l-0.014,0.038&#10;&#9;c-2.318,6.279-2.344,6.32-3.732,8.372c1.096-2.763,1.426-3.6,1.49-4.578c-1.838,0.292-3.139,3.793-4.291,6.882&#10;&#9;c-0.074-0.059-0.178-0.138-0.254-0.196c-0.43,0.161-0.873,0.327-2.063,1.62c1.574-5.177,1.574-5.177,0.271-5&#10;&#9;c-0.014,0-1.834,0.797-3.053,2.503c-1.131,1.59-0.355,4.077-2.455,5.208c-0.867-0.404-2.676,0.761-3.209,1.128&#10;&#9;c2.098-2.514,1.945-5.275-0.293-5.275c-2.844,0-6.432,5.472-4.027,7.585c0.99,0.869,2.273-0.271,3.123-1.021&#10;&#9;c-0.344,0.522-1.471,2.309-1.434,3.179c-1.355,0.802-2.982,1.106-4.146,2.26c-0.027,0.023-2.482,2.735-2.088,3.896&#10;&#9;c-0.311,0.304-0.465,0.455-0.891,0.521c-5.959,0.911-6.385,4.915-6.385,4.956c-2.486-1.605-6.318,2.188-6.219,2.904&#10;&#9;c0.232,1.688,5.17-0.605,6.164-1.88c0.33-0.42,0.225-0.668,0.119-0.904c0.406,0.278,0.406,0.278,2.76-0.127&#10;&#9;c-1.148,0.907-1.314,1.148-1.617,1.59c-2.928-0.123-6.219,2.983-6.395,3.314c0.064,0.06,0.15,0.14,0.217,0.196&#10;&#9;c3.023-0.21,5.234-2.426,8.016-3.243c-1.736,1.095-5.355,3.37-13.688,5.173c2.52-0.516,5.967-1.218,10.652-3.055&#10;&#9;c3.078-1.324,5.508-2.37,9.324-4.736c3.877-2.625,4.574-3.1,7.746-5.852c3.758-3.624,4.15-4.003,6.471-6.844&#10;&#9;c3.299-4.459,3.498-4.725,5.201-7.716C111.645,82.437,112.084,81.577,113.084,78.729 M110.219,79.535&#10;&#9;c0.721-2.333,0.125-3.464-0.16-4.008c-0.004-0.005-0.004-0.008-0.008-0.011c-0.467,0.199-1.721,0.724-2.576,2.497&#10;&#9;c-0.225,0.461-0.641,1.321-1.117,3.517c-0.252,1.154-0.252,1.154,0,1.631C107.877,86.048,110.196,79.602,110.219,79.535&#10;&#9; M113.803,76.256c0.193-0.671,0.834-2.949,0.824-3.988c-0.02-0.13-0.039-0.28-0.137-0.288c-0.898-0.053-3.48,8.399-2.813,9.227&#10;&#9;C112.084,81.123,113.409,77.607,113.803,76.256 M103.547,82.741c0.512-1.811-0.111-2.566-0.41-2.933&#10;&#9;c-0.203-0.209-0.447-0.378-0.68-0.461c-2.23-0.808-5.629,4.688-4.328,6.997C99.575,88.911,102.649,85.883,103.547,82.741&#10;&#9; M73.18,114.429c0.77-0.303,1.143-0.554,1.113-0.74c-0.004-0.007-0.01-0.017-0.016-0.02c-0.195-0.21-0.979-0.11-2.092,0.261&#10;&#9;c-1.709,0.571-3.018,1.238-2.996,1.436C69.393,115.528,71.891,114.938,73.18,114.429 M108.204,74.625&#10;&#9;c0.219-1.331-0.01-2.474-0.645-3.215c-0.211-0.204-0.406-0.394-0.799-0.42c-2.297-0.174-4.529,5.938-2.875,7.877&#10;&#9;C105.35,80.58,107.674,77.843,108.204,74.625 M115.645,69.042l0.385-2.585c0.117-0.979,0.236-2.072,0.215-2.814&#10;&#9;c-0.021-0.356-0.035-0.371-0.104-0.438c-0.492,0.453-1.566,8.445-1.17,8.722C115.112,71.733,115.352,70.707,115.645,69.042&#10;&#9; M113.69,71.678c0.416-2.606,0.207-3.365-0.043-3.915c-0.09-0.166-0.225-0.421-0.469-0.438c-0.705-0.044-1.633,2.268-1.955,3.573&#10;&#9;c-0.322,1.314-0.404,2.546-0.418,3.347c-0.02,0.892-0.02,0.892,0.34,1.367C112.432,77.333,113.68,71.74,113.69,71.678&#10;&#9; M73.139,113.119c0.633-0.461,0.785-0.844,0.455-1.137c-1.262-0.819-4.898,0.785-5.006,1.869&#10;&#9;C68.469,115.066,71.85,114.069,73.139,113.119 M84.098,102.638c0.865-1.394,0.139-2.04-0.104-2.253&#10;&#9;c-0.072-0.048-0.172-0.117-0.252-0.158c-2.307-1.287-6.555,1.961-6.084,3.956C78.262,106.736,82.672,104.948,84.098,102.638&#10;&#9; M91.887,96.587c0.66-1.184,0.17-1.699-0.121-2.005c-0.113-0.093-0.305-0.251-0.674-0.424c-2.434-1.136-7.182,2.813-6.271,5.214&#10;&#9;c0.244,0.646,0.961,1.604,3.027,0.788C90.313,99.188,91.872,96.616,91.887,96.587 M67.512,115.779&#10;&#9;c0.83-0.129,0.916-0.218,0.941-0.244c0-0.007-0.004-0.021-0.004-0.028c-0.246-0.147-1.58,0.148-2.379,0.324&#10;&#9;c-0.84,0.186-1.143,0.254-1.383,0.277c0.719-0.071,1.67-0.183,2.387-0.271l0.383-0.052L67.512,115.779 M99.995,77.549&#10;&#9;c0.246-1.706-0.578-2.776-0.93-3.237c-0.338-0.157-0.656-0.31-1.146-0.363c-2.83-0.33-5.428,4.722-3.604,7.017&#10;&#9;C96.495,83.715,99.586,80.359,99.995,77.549 M70.874,111.213c0.67-0.892-0.264-1.479-0.301-1.507&#10;&#9;c-1.668-0.813-4.908,0.51-4.818,1.964C65.866,113.453,69.659,112.827,70.874,111.213 M115.661,62.472&#10;&#9;c0.066-2.025-0.262-3.123-0.387-3.535c-0.104-0.145-0.211-0.296-0.369-0.327c-1.191-0.233-1.721,7.13-0.604,8.472&#10;&#9;C114.983,67.908,115.592,64.585,115.661,62.472 M93.864,85.994c0.406-1.568-0.375-2.565-0.75-3.041&#10;&#9;c-0.236-0.113-0.561-0.27-0.938-0.354c-3.174-0.731-6.303,3.86-4.949,6.075C89.02,91.619,93.094,88.987,93.864,85.994&#10;&#9; M77.342,107.296c0.652-1.002-0.021-1.504-0.311-1.718c-2.207-1.432-6.088,1.275-5.805,2.849c0.256,1.445,2.176,1.169,2.559,1.097&#10;&#9;C75.344,109.237,76.854,108.044,77.342,107.296 M79.899,98.825c0.482-1.354-0.354-1.969-0.756-2.265&#10;&#9;c-0.297-0.192-0.52-0.277-0.602-0.313c-2.781-1.076-6.533,1.941-5.43,4.364C73.997,102.544,78.711,102.167,79.899,98.825&#10;&#9; M111.909,65.63c0.049-1.837-0.529-2.876-0.775-3.315c-0.193-0.132-0.516-0.344-0.906-0.31c-1.795,0.154-3.125,6.397-1.131,8.269&#10;&#9;C110.53,71.616,111.842,68.028,111.909,65.63 M87.27,92.956c0.551-1.593-0.316-2.291-0.781-2.662&#10;&#9;c-0.16-0.104-0.379-0.237-0.553-0.311c-2.656-1.114-6.9,2.607-5.752,5.042c0.467,0.987,1.768,1.804,3.258,1.369&#10;&#9;C85.87,95.686,86.864,94.131,87.27,92.956 M67.629,115.166c0.637-0.361,0.338-0.547,0.209-0.626&#10;&#9;c-1.094-0.484-3.557,0.409-3.766,1.021C63.85,116.214,66.655,115.712,67.629,115.166 M116.469,59.447&#10;&#9;c0.02-1.504-0.141-3.502-0.205-5.005c-0.004-0.003-0.008-0.011-0.008-0.014c-0.104,2.789,0.191,5.576,0.109,8.368L116.469,59.447&#10;&#9; M113.563,56.744c-0.176-1.851-0.777-2.614-1.035-2.941c-0.154-0.162-0.416-0.43-0.715-0.403c-1.551,0.117-1.504,6.529,0.059,7.706&#10;&#9;C113.37,62.232,113.735,58.559,113.563,56.744 M104.536,68.935c0.066-1.896-0.689-2.634-1.055-2.986&#10;&#9;c-0.439-0.379-0.895-0.565-1.348-0.563c-2.223,0.023-4.184,5.336-2.115,7.543C101.827,74.864,104.399,72.585,104.536,68.935&#10;&#9; M73.116,104.124c0.162-0.438,0.271-1.262-0.793-1.93c-0.197-0.109-0.473-0.263-0.816-0.364c-2.35-0.701-5.492,1.617-4.613,3.397&#10;&#9;C68.122,107.71,72.36,106.177,73.116,104.124 M115.899,53.234c-0.154-1.28-0.379-2.236-0.66-2.842&#10;&#9;c-0.08-0.147-0.211-0.395-0.334-0.378c-0.732,0.109-0.02,7.003,0.803,7.767C116.098,58.146,116.202,55.724,115.899,53.234&#10;&#9; M99.051,63.718c-0.057-1.583-1.035-2.459-1.508-2.883c-0.373-0.188-0.941-0.481-1.619-0.424c-2.123,0.177-3.9,4.564-1.455,6.723&#10;&#9;C97.366,69.688,99.12,65.637,99.051,63.718 M66.834,108.592c0.443-0.888-0.43-1.5-0.805-1.762c-3.1-1.289-4.939,1.036-4.604,2.037&#10;&#9;C62.002,110.577,65.766,110.731,66.834,108.592 M113.598,47.993c-0.383-1.582-0.92-2.223-1.15-2.497&#10;&#9;c-0.182-0.196-0.441-0.42-0.658-0.372c-0.84,0.193-0.234,6.039,1.326,7.004C114.334,52.876,113.901,49.248,113.598,47.993&#10;&#9; M108.042,60.643c-0.063-1.262-0.49-2.243-1.268-2.922c-0.281-0.218-0.697-0.545-1.227-0.47c-1.568,0.215-3.105,5.181-0.629,7.39&#10;&#9;C106.774,66.292,108.176,63.32,108.042,60.643 M88.594,80.255c0.211-1.574-0.746-2.324-1.207-2.689&#10;&#9;c-0.6-0.42-1.211-0.646-1.82-0.681c-2.516-0.138-5.375,3.869-3.607,6.047C84.229,85.721,88.141,83.62,88.594,80.255 M63.002,116.221&#10;&#9;c0.146-0.021,0.193-0.048,0.211-0.058c0.064-0.053-0.068-0.087-0.166-0.11c-0.963-0.2-2.277,0.206-2.346,0.257&#10;&#9;c0,0.009,0.002,0.013,0.002,0.016c0.025,0.007,0.049,0.007,0.072,0.007l0.744-0.021l1.09-0.048&#10;&#9;C62.721,116.255,62.87,116.243,63.002,116.221 M109.698,52.013c-0.297-1.64-1.092-2.355-1.428-2.658&#10;&#9;c-0.451-0.365-0.768-0.434-0.957-0.427c-1.77,0.045-1.547,5.335,0.297,6.9C109.161,57.148,110.178,54.682,109.698,52.013&#10;&#9; M94.405,72.208c0.127-1.706-0.855-2.504-1.328-2.886c-0.348-0.256-0.887-0.572-1.51-0.632c-2.471-0.231-4.99,4.294-2.939,6.569&#10;&#9;C91.122,78.036,94.18,75.267,94.405,72.208 M74.495,94.236c0.371-1.253-0.547-2.105-0.986-2.512&#10;&#9;c-0.383-0.214-0.74-0.409-1.283-0.551c-2.814-0.729-5.496,2.381-4.393,4.221C69.6,98.352,73.752,96.746,74.495,94.236&#10;&#9; M81.928,87.704c0.289-1.456-0.691-2.188-1.162-2.542c-0.475-0.317-0.959-0.527-1.449-0.62c-2.662-0.513-5.688,3.124-4.314,5.188&#10;&#9;C76.786,92.41,81.254,91.104,81.928,87.704 M65.467,113.919c0.291-0.354,0.148-0.678-0.422-0.963&#10;&#9;c-1.844-0.828-3.693,0.485-3.678,1.07C61.399,115.175,64.502,115.093,65.467,113.919 M67.444,100.124&#10;&#9;c0.213-1.093-0.648-1.691-1.063-1.981c-0.414-0.262-0.83-0.443-1.246-0.543c-2.479-0.62-4.766,1.908-3.813,3.46&#10;&#9;c0.346,0.564,1.666,1.706,3.346,1.444C65.331,102.405,67.124,101.775,67.444,100.124 M102.223,55.147&#10;&#9;c-0.248-1.569-1.057-2.198-1.441-2.498c-0.402-0.282-1.006-0.592-1.604-0.488c-1.695,0.281-2.961,4.582-0.213,6.625&#10;&#9;C100.877,60.208,102.704,58.166,102.223,55.147 M61.315,115.63c0.16-0.241-0.23-0.465-0.439-0.585&#10;&#9;c-1.951-0.462-2.674,0.275-2.625,0.509C58.383,116.18,60.905,116.243,61.315,115.63 M114.317,43.83&#10;&#9;c-0.447-1.555-0.691-2.088-0.795-2.318c-0.137-0.282-0.176-0.293-0.244-0.317c-0.227,0.428,1.301,6.013,1.859,6.791&#10;&#9;c0.018,0,0.039,0.004,0.053,0.007C115.264,47.689,114.926,45.946,114.317,43.83 M61.661,111.802&#10;&#9;c0.205-0.686-0.576-1.092-0.834-1.226c-0.125-0.059-0.293-0.139-0.424-0.188c-1.879-0.684-3.674,0.589-3.211,1.519&#10;&#9;C57.874,113.263,61.161,113.477,61.661,111.802 M87.518,66.806c0.049-0.693-0.094-2.006-1.586-3.026&#10;&#9;c-0.313-0.188-0.836-0.509-1.527-0.563c-2.256-0.186-5.021,3.233-2.414,6.239C83.463,71.148,87.278,70.206,87.518,66.806&#10;&#9; M67.616,88.958c0.143-0.998-0.268-1.844-1.217-2.521c-0.313-0.203-0.836-0.54-1.553-0.659c-2.342-0.402-4.879,2.305-3.412,4.419&#10;&#9;c0.131,0.187,1.346,1.831,3.502,1.396C66.893,91.205,67.471,89.947,67.616,88.958 M74.389,82.216&#10;&#9;c0.113-0.64,0.078-1.871-1.418-2.961c-0.289-0.189-0.775-0.507-1.451-0.615c-2.273-0.354-5.465,2.461-3.225,5.469&#10;&#9;C69.952,86.316,73.877,85.099,74.389,82.216 M61.487,104.954c0.154-0.949-0.732-1.528-1.111-1.775&#10;&#9;c-0.453-0.271-0.932-0.447-1.412-0.521c-1.961-0.301-3.885,1.354-2.715,2.902c0.268,0.354,1.076,1.423,3.133,1.184&#10;&#9;C60.588,106.604,61.379,105.615,61.487,104.954 M109.667,43.487c-0.527-1.455-1.146-1.981-1.441-2.236&#10;&#9;c-0.375-0.293-0.684-0.399-0.93-0.323c-1.264,0.412-0.266,5.53,1.803,6.419C110.012,47.738,110.631,46.166,109.667,43.487&#10;&#9; M104.315,47.132c-0.426-1.479-1.178-2.036-1.539-2.305c-0.338-0.234-0.842-0.485-1.316-0.378c-1.707,0.378-1.416,5.015,0.963,6.297&#10;&#9;C103.737,51.455,105.165,50.059,104.315,47.132 M81.522,74.793c0.162-1.641-0.969-2.52-1.451-2.89&#10;&#9;c-0.281-0.199-0.859-0.552-1.555-0.641c-2.35-0.303-5.469,2.938-2.945,6.052c1.307,1.612,3.514,0.772,3.535,0.768&#10;&#9;C80.899,77.32,81.461,75.451,81.522,74.793 M61.161,95.101c0.131-0.846-0.342-1.706-1.297-2.365&#10;&#9;c-0.338-0.209-0.852-0.53-1.609-0.616c-1.887-0.208-4.346,1.669-2.617,3.911C57.469,98.411,60.854,97.115,61.161,95.101&#10;&#9; M92.223,58.243c-0.148-1.551-1.045-2.204-1.475-2.519c-0.414-0.271-1.059-0.584-1.77-0.535c-2.117,0.154-3.76,4.044-1.246,6.067&#10;&#9;C89.729,62.854,92.534,61.493,92.223,58.243 M57.403,114.014c-0.014-0.173-0.148-0.511-0.922-0.847&#10;&#9;c-0.248-0.104-0.908-0.365-1.627-0.307c-0.711,0.059-1.545,0.566-0.777,1.215C55.26,115.066,57.465,114.869,57.403,114.014&#10;&#9; M112.061,39.712c-0.414-1.015-0.834-1.757-1.254-2.2c-0.123-0.121-0.33-0.32-0.473-0.282c-0.807,0.192,1.213,5.747,2.252,6.191&#10;&#9;C112.993,43.596,113.106,42.286,112.061,39.712 M56.42,108.865c0.025-0.69-0.771-1.256-1.107-1.497&#10;&#9;c-0.299-0.13-0.916-0.397-1.605-0.439c-1.459-0.088-2.602,1.061-1.625,2.139C53.588,110.724,56.366,110.346,56.42,108.865&#10;&#9; M55.237,100.227c0.031-0.457-0.17-1.154-1.293-1.893c-0.297-0.179-0.92-0.556-1.676-0.611c-1.486-0.109-3.33,1.465-1.824,3.138&#10;&#9;C52.344,102.965,55.12,101.96,55.237,100.227 M58.465,116.296c-0.021-0.059-0.418-0.15-0.57-0.186&#10;&#9;c-1.293-0.222-1.545-0.014-1.568,0.012c-0.041,0.041-0.045,0.14,0.809,0.174l1.102,0.035&#10;&#9;C58.446,116.338,58.452,116.319,58.465,116.296 M104.379,39.091c-0.357-0.806-0.889-1.438-1.576-1.889&#10;&#9;c-0.254-0.155-0.783-0.472-1.158-0.307c-1.184,0.522,0.014,4.761,2.023,5.459C105.352,42.941,104.858,40.161,104.379,39.091&#10;&#9; M108.149,35.596c-0.598-1.156-1.221-1.645-1.484-1.851c-0.324-0.237-0.578-0.331-0.732-0.269c-0.83,0.33,0.855,4.774,2.506,5.359&#10;&#9;C109.502,39.209,108.762,36.764,108.149,35.596 M95.563,50.049c-0.27-1.341-1.131-1.943-1.549-2.232&#10;&#9;c-0.643-0.409-1.217-0.562-1.705-0.45c-1.393,0.323-2.627,3.853,0.092,5.696C94.426,54.435,96.038,52.409,95.563,50.049&#10;&#9; M112.893,39.427c-0.668-1.706-1.682-3.928-2.438-5.597c-0.008-0.01-0.02-0.023-0.025-0.031&#10;&#9;C111.167,35.712,112.151,37.521,112.893,39.427 M73.641,68.726c0.145-1.328-0.846-2.284-1.318-2.744&#10;&#9;c-0.373-0.214-0.93-0.541-1.631-0.609c-2.191-0.219-4.184,2.858-2.539,4.882C70.444,73.076,73.401,70.965,73.641,68.726&#10;&#9; M53.622,89.33c0.072-1.131-0.73-1.781-1.16-2.133c-0.297-0.206-0.916-0.641-1.684-0.711c-1.834-0.174-3.607,1.922-1.926,3.778&#10;&#9;c0.387,0.435,1.438,1.41,2.762,1.148C53.516,91.043,53.592,89.797,53.622,89.33 M54.862,115.471&#10;&#9;c-0.186-0.216-0.652-0.37-0.877-0.446c-1.088-0.344-1.656-0.262-1.736-0.03c-0.158,0.442,2.146,1.057,2.682,0.705&#10;&#9;C54.936,115.65,54.954,115.582,54.862,115.471 M59.979,83.112c0.189-1.253-0.879-2.257-1.395-2.738&#10;&#9;c-0.338-0.157-0.84-0.406-1.455-0.475c-2.014-0.228-3.893,2.271-2.49,4.109C56.75,86.779,59.67,85.127,59.979,83.112 M79.516,60.849&#10;&#9;c0.094-1.361-0.955-2.235-1.402-2.613c-0.371-0.199-0.936-0.502-1.609-0.536c-1.875-0.094-3.887,2.906-2.004,4.896&#10;&#9;C77.034,65.281,79.385,62.701,79.516,60.849 M50.27,104.543c-0.082-0.732-0.848-1.229-1.174-1.441&#10;&#9;c-0.559-0.337-1.379-0.715-2.146-0.599c-0.719,0.11-2.215,1.184-0.287,2.728C48.526,106.728,50.418,105.877,50.27,104.543&#10;&#9; M84.551,52.843c-0.025-0.653-0.318-1.601-1.563-2.409c-0.307-0.182-0.941-0.557-1.662-0.484c-2.063,0.214-3,3.615-0.855,5.205&#10;&#9;C82.61,56.744,84.637,54.816,84.551,52.843 M88.143,44.917c-0.176-0.888-0.684-1.604-1.506-2.118&#10;&#9;c-0.289-0.167-0.891-0.511-1.523-0.403c-1.529,0.258-2.486,3.251-0.018,4.895C86.731,48.376,88.616,47.319,88.143,44.917&#10;&#9; M97.899,42.475c-0.266-0.864-0.822-1.562-1.65-2.081c-0.293-0.168-0.896-0.512-1.41-0.354c-0.957,0.296-0.918,2.154-0.822,2.628&#10;&#9;c0.365,1.8,1.885,2.677,1.902,2.687C97.575,46.266,98.5,44.442,97.899,42.475 M52.188,111.608c-0.098-0.463-0.756-0.869-1.072-1.064&#10;&#9;c-0.387-0.169-1.279-0.557-1.979-0.396c-0.518,0.12-1.289,0.813,0.031,1.651C51.04,112.995,52.362,112.396,52.188,111.608&#10;&#9; M105.229,28.371c-0.361-0.516-0.93-1.217-1.559-1.643c-0.172-0.104-0.434-0.269-0.559-0.173c-0.553,0.44,2.15,4.357,3.045,4.413&#10;&#9;C106.489,30.991,106.459,30.117,105.229,28.371 M98.102,34.866c-0.398-0.811-0.953-1.43-1.648-1.836&#10;&#9;c-0.254-0.135-0.779-0.416-1.174-0.269c-1.07,0.413-0.246,3.86,1.924,4.712C98.006,37.791,99.2,37.109,98.102,34.866 M109.18,32.059&#10;&#9;c-0.605-1.044-0.959-1.423-1.131-1.603c-0.131-0.131-0.303-0.281-0.375-0.251c-0.406,0.183,2.174,4.84,2.789,5.039&#10;&#9;C110.78,35.345,110.086,33.618,109.18,32.059 M47.872,94.952c0-0.709-0.387-1.35-1.143-1.898c-0.303-0.201-0.93-0.624-1.691-0.675&#10;&#9;c-1.545-0.11-2.846,1.61-1.354,3.192c0.451,0.48,1.496,1.244,2.566,1.087C47.872,96.416,47.872,95.424,47.872,94.952&#10;&#9; M102.952,31.696c-0.725-1.177-1.432-1.6-1.664-1.741c-0.207-0.116-0.643-0.358-0.895-0.192c-0.799,0.515,1.055,4.306,2.713,4.664&#10;&#9;C103.62,34.537,104.202,33.717,102.952,31.696 M66.604,75.901c0.158-1.289-0.77-2.187-1.213-2.613&#10;&#9;c-0.375-0.236-0.939-0.591-1.648-0.688c-2.084-0.289-4.188,2.646-2.658,4.622C63.34,80.146,66.333,78.136,66.604,75.901&#10;&#9; M54.079,116.081c-0.336-0.056-0.67-0.12-1.006-0.184c-0.479-0.083-0.93-0.149-0.975-0.09c0.059,0.06,0.461,0.117,0.787,0.159&#10;&#9;l1.094,0.116l0.307,0.026C54.217,116.105,54.149,116.091,54.079,116.081 M45.874,108.284c-0.139-0.523-0.822-1.046-1.152-1.293&#10;&#9;c-0.314-0.154-1.256-0.627-1.93-0.448c-0.699,0.179-1.064,1.074,0.729,2.123C45.102,109.596,46.055,108.984,45.874,108.284&#10;&#9; M49.842,113.686c-0.299-0.36-0.832-0.591-1.09-0.705c-1.004-0.411-1.771-0.442-1.83-0.074c-0.055,0.351,0.623,0.772,1.271,1.018&#10;&#9;c1.26,0.479,1.643,0.337,1.836,0.159C50.014,113.996,49.991,113.869,49.842,113.686 M90.754,37.137&#10;&#9;c-0.258-0.743-0.832-1.421-1.57-1.858c-0.236-0.13-0.721-0.393-1.189-0.296c-1.484,0.311-1.012,3.231,0.697,4.283&#10;&#9;C90.194,40.19,91.387,38.958,90.754,37.137 M58.639,69.211c0.178-1.173-0.646-2.096-0.953-2.439&#10;&#9;c-0.311-0.194-0.777-0.486-1.389-0.576c-1.883-0.278-3.541,2.117-2.168,3.959C55.897,72.523,58.366,70.991,58.639,69.211&#10;&#9; M104.864,25c-0.666-0.853-0.969-1.146-1.102-1.272c-0.191-0.172-0.227-0.169-0.248-0.165c-0.088,0.239,2.684,3.856,2.994,3.91&#10;&#9;C106.526,27.323,105.829,26.232,104.864,25 M65.059,61.812c0.117-0.881-0.314-1.809-1.158-2.481&#10;&#9;c-0.25-0.184-0.629-0.458-1.207-0.523c-1.527-0.172-3.814,1.794-1.92,4.351C61.909,64.684,64.749,64.111,65.059,61.812&#10;&#9; M71.801,53.963c0.008-0.846-0.396-1.596-1.162-2.167c-0.258-0.171-0.65-0.44-1.215-0.488c-1.715-0.151-3.381,2.288-1.709,4.138&#10;&#9;C69.266,57.16,71.788,56.247,71.801,53.963 M96.625,27.705c-0.596-0.847-1.311-1.225-1.543-1.349&#10;&#9;c-0.23-0.117-0.66-0.331-0.889-0.165c-0.348,0.254,0.055,1.451,0.502,2.098c0.949,1.376,2.066,1.631,2.078,1.631&#10;&#9;C97.592,30.072,97.383,28.779,96.625,27.705 M76.663,46.506c-0.037-1.005-0.863-1.699-1.264-2.036&#10;&#9;c-0.225-0.123-0.701-0.378-1.209-0.364c-1.326,0.027-2.643,2.346-0.854,3.9C75.42,49.814,76.704,47.639,76.663,46.506&#10;&#9; M43.641,110.924c-0.188-0.285-0.592-0.592-1.211-0.901c-0.719-0.352-1.197-0.439-1.424-0.271c-0.619,0.466,1.08,1.521,2.063,1.738&#10;&#9;C43.608,111.605,43.967,111.427,43.641,110.924 M99.959,24.787c-0.578-0.68-1.16-1.052-1.41-1.211&#10;&#9;c-0.211-0.105-0.6-0.302-0.746-0.175c-0.234,0.199,0.396,1.356,1.078,2.157c0.631,0.742,1.545,1.341,1.887,1.348&#10;&#9;C101.303,26.911,100.655,25.609,99.959,24.787 M80.399,38.987c-0.193-0.921-0.865-1.375-1.15-1.568&#10;&#9;c-0.379-0.232-0.936-0.494-1.43-0.385c-0.961,0.206-1.816,2.394,0.068,3.666C79.538,41.808,80.69,40.406,80.399,38.987&#10;&#9; M49.167,115.039c-0.355-0.184-0.947-0.371-1.199-0.455c-0.268-0.071-0.982-0.271-0.982-0.131c0,0.229,2.289,0.964,2.449,0.791&#10;&#9;C49.43,115.183,49.264,115.086,49.167,115.039 M101.18,21.913c-0.621-0.661-1.084-0.968-1.303-1.116&#10;&#9;c-0.137-0.075-0.387-0.212-0.426-0.109c-0.072,0.2,0.98,1.473,1.467,1.981c0.795,0.829,1.438,1.215,1.561,1.19&#10;&#9;C102.721,23.803,101.85,22.626,101.18,21.913 M90.938,29.948c-0.303-0.578-0.781-1.046-1.418-1.396&#10;&#9;c-0.262-0.138-0.754-0.393-1.076-0.24c-0.795,0.371-0.143,3.013,1.889,3.646C91.432,32.301,91.485,30.987,90.938,29.948&#10;&#9; M38.836,103.451c-0.211-0.594-0.912-1.098-1.178-1.283c-0.311-0.157-1.129-0.571-1.625-0.357c-0.637,0.282-0.521,1.515,1.307,2.395&#10;&#9;C38.719,104.868,39.049,104.052,38.836,103.451 M45.776,82.794c0.031-0.649-0.318-1.293-1.037-1.905&#10;&#9;c-0.266-0.214-0.758-0.611-1.398-0.649c-1.25-0.078-2.781,1.675-1.404,3.299C43.733,85.667,45.704,84.37,45.776,82.794&#10;&#9; M52.106,76.119c0.068-1.063-0.656-1.74-0.969-2.026c-0.555-0.474-1.113-0.722-1.654-0.735c-1.543-0.03-3.195,2.174-1.354,4.177&#10;&#9;C49.551,79.074,51.965,78.212,52.106,76.119 M40.112,88.766c-0.037-0.694-0.598-1.324-0.836-1.593&#10;&#9;c-0.318-0.238-0.982-0.739-1.672-0.719c-1.064,0.031-2.211,1.544-0.449,3.122C38.87,91.119,40.163,89.763,40.112,88.766&#10;&#9; M42.444,99.398c-0.09-0.691-0.801-1.269-1.145-1.548c-0.354-0.203-1.076-0.629-1.738-0.562c-0.887,0.09-1.787,1.313-0.129,2.636&#10;&#9;C41.518,101.588,42.553,100.238,42.444,99.398 M99.581,18.871c-0.652-0.641-0.996-0.932-1.129-1.042&#10;&#9;c-0.045-0.027-0.045-0.027-0.063-0.024c0.008,0.021,2.467,2.588,2.701,2.648C100.985,20.303,100.237,19.518,99.581,18.871&#10;&#9; M93.551,20.998c-0.629-0.654-1.314-1.033-1.572-1.178c-0.141-0.033-0.439-0.105-0.572-0.014c-0.539,0.386,1.742,2.7,2.717,2.76&#10;&#9;C94.735,22.601,94.192,21.659,93.551,20.998 M95.989,18.835c-0.67-0.583-1.037-0.763-1.213-0.852&#10;&#9;c-0.262-0.121-0.455-0.155-0.51-0.09c-0.268,0.329,2.15,2.511,2.787,2.508c0.244,0,0.023-0.378-0.131-0.604&#10;&#9;C96.782,19.587,96.682,19.438,95.989,18.835 M68.948,40.417c-0.039-0.729-0.51-1.122-0.713-1.286&#10;&#9;c-0.34-0.259-0.699-0.403-1.012-0.407c-1.15-0.02-1.822,1.848-0.705,2.9C67.495,42.547,69.038,42.01,68.948,40.417 M64.022,47.621&#10;&#9;c0.047-0.922-0.537-1.518-0.791-1.734c-0.17-0.123-0.42-0.313-0.816-0.351c-1.398-0.142-2.631,1.685-1.229,3.229&#10;&#9;c0.482,0.533,1.086,0.664,1.791,0.378C63.461,48.949,63.963,48.745,64.022,47.621 M34.77,93.528&#10;&#9;c-0.109-0.684-0.729-1.254-0.936-1.445c-0.271-0.151-0.908-0.512-1.436-0.451c-0.893,0.104-1.08,1.556,0.254,2.521&#10;&#9;C34.131,95.225,34.911,94.386,34.77,93.528 M44.36,68.864c0.117-1.021-0.34-1.507-0.561-1.739c-0.484-0.462-0.971-0.575-1.213-0.603&#10;&#9;c-1.502-0.17-2.355,1.943-1.287,3.186c0.502,0.581,1.211,0.854,1.803,0.69C44.219,70.088,44.295,69.442,44.36,68.864 M82.606,31.98&#10;&#9;c-0.092-0.266-0.395-0.932-1.217-1.428c-0.188-0.104-0.564-0.313-0.939-0.248c-0.607,0.11-0.791,0.87-0.723,1.376&#10;&#9;c0.123,0.937,1.129,1.774,1.139,1.778C81.833,34.099,83.143,33.518,82.606,31.98 M89.479,23.354&#10;&#9;c-0.533-0.657-0.98-0.895-1.193-1.008c-0.406-0.199-0.727-0.241-0.875-0.113c-0.512,0.443,1.002,2.59,2.195,2.755&#10;&#9;c0.492,0.069,0.48-0.388,0.475-0.481C90.057,24.189,90.045,24.045,89.479,23.354 M57.727,54.167&#10;&#9;c0.045-0.956-0.389-1.377-0.619-1.601c-0.563-0.484-1.08-0.554-1.338-0.55c-1.428,0.007-2.432,2.103-1.236,3.385&#10;&#9;c0.33,0.358,1.031,0.9,1.979,0.536C57.665,55.492,57.69,54.993,57.727,54.167 M51.399,61.441c0.123-0.957-0.531-1.767-0.811-2.114&#10;&#9;c-0.227-0.08-0.535-0.189-0.854-0.245c-1.926-0.34-2.65,1.968-1.773,3.154C49.155,63.852,51.178,63.117,51.399,61.441&#10;&#9; M48.667,115.314l0.494,0.097C48.995,115.375,48.833,115.348,48.667,115.314 M95.756,16.164c-0.381-0.306-0.73-0.536-1.025-0.688&#10;&#9;c-0.158-0.075-0.207-0.09-0.24-0.072c-0.053,0.217,2.193,1.994,2.455,1.94C96.999,17.255,96.348,16.635,95.756,16.164&#10;&#9; M36.569,106.754c-0.168-0.261-0.486-0.535-0.953-0.817c-0.217-0.125-0.865-0.51-1.135-0.293c-0.537,0.438,0.967,1.56,1.744,1.73&#10;&#9;C36.731,107.486,36.813,107.136,36.569,106.754 M83.542,25.665c-0.273-0.499-0.783-0.863-1.027-1.036&#10;&#9;c-0.176-0.085-0.586-0.281-0.826-0.13c-0.561,0.351,0.049,2.013,1.352,2.441C83.881,27.217,83.827,26.188,83.542,25.665&#10;&#9; M37.989,75.448c0.037-0.69-0.398-1.154-0.605-1.375c-0.379-0.372-0.748-0.571-1.092-0.594c-0.908-0.048-1.934,1.453-0.816,2.701&#10;&#9;C36.735,77.587,37.934,76.55,37.989,75.448 M43.014,112.891c-0.328-0.247-0.861-0.474-1.064-0.563c-0.008,0-0.758-0.304-0.863-0.195&#10;&#9;c-0.053,0.053,0.049,0.261,0.678,0.581c0.457,0.234,1.256,0.523,1.443,0.503C43.358,113.195,43.168,113.004,43.014,112.891&#10;&#9; M72.641,33.628c-0.033-0.289-0.199-0.716-0.764-1.115c-0.15-0.103-0.436-0.288-0.736-0.265c-0.674,0.06-1.383,1.4-0.146,2.374&#10;&#9;C72.118,35.509,72.739,34.368,72.641,33.628 M31.75,81.302c0.047-0.624-0.469-1.205-0.717-1.482&#10;&#9;c-0.141-0.083-0.404-0.237-0.688-0.278c-0.785-0.11-1.432,0.982-0.623,1.988C30.725,82.779,31.68,82.148,31.75,81.302&#10;&#9; M82.389,19.698c-0.236-0.293-0.625-0.612-0.949-0.771c-0.104-0.052-0.35-0.165-0.48-0.056c-0.113,0.097-0.152,0.413,0.23,0.86&#10;&#9;c0.563,0.668,0.969,0.826,1.207,0.84C82.805,20.599,82.727,20.117,82.389,19.698 M86.62,17.682c-0.412-0.39-0.869-0.619-1.041-0.709&#10;&#9;c-0.131-0.045-0.373-0.124-0.465-0.052c-0.342,0.271,1.305,1.728,1.93,1.71C87.377,18.624,87.024,18.06,86.62,17.682 M75.032,27.12&#10;&#9;c-0.168-0.517-0.646-0.888-0.854-1.046c-0.203,0.027-0.412-0.01-0.611,0.063c-0.537,0.195-0.342,1.431,0.461,1.853&#10;&#9;C74.915,28.46,75.249,27.785,75.032,27.12 M31.155,97.992c-0.127-0.45-0.561-0.798-0.77-0.963c-0.547-0.42-0.867-0.447-1.043-0.399&#10;&#9;c-0.604,0.173-0.352,1.28,0.869,1.94C30.856,98.92,31.334,98.627,31.155,97.992 M89.516,15.639c-0.496-0.372-0.914-0.55-1.072-0.616&#10;&#9;c-0.098-0.027-0.297-0.086-0.352-0.03c-0.242,0.22,1.719,1.658,2.184,1.602C90.528,16.56,89.995,16.003,89.516,15.639&#10;&#9; M35.991,109.562c-0.281-0.243-0.535-0.385-0.656-0.455c-0.377-0.197-0.697-0.294-0.746-0.229c-0.113,0.162,1.117,1.067,1.605,1.06&#10;&#9;C36.418,109.933,36.17,109.72,35.991,109.562 M56.965,41.146c0.057-0.475-0.168-0.884-0.373-1.094&#10;&#9;c-0.094-0.075-0.217-0.186-0.445-0.202c-0.813-0.065-1.547,0.966-0.793,1.915c0.311,0.393,0.723,0.29,1.006,0.179&#10;&#9;C56.602,41.855,56.897,41.743,56.965,41.146 M90.159,13.365c-0.543-0.348-0.783-0.444-0.887-0.481&#10;&#9;c-0.195-0.072-0.252-0.052-0.264-0.03c-0.111,0.144,1.764,1.341,2.004,1.279C91.022,14.128,91.252,14.056,90.159,13.365&#10;&#9; M27.096,86.757c-0.027-0.255-0.145-0.64-0.551-1.036c-0.123-0.113-0.412-0.367-0.756-0.354c-0.791,0.041-0.727,1.162,0.104,1.851&#10;&#9;c0.391,0.319,0.709,0.269,0.865,0.206C26.959,87.348,27.147,87.28,27.096,86.757 M50.61,47.255c0.076-0.542-0.162-0.811-0.271-0.938&#10;&#9;c-0.232-0.238-0.48-0.306-0.646-0.32c-0.838-0.083-1.424,1.193-0.869,1.895c0.33,0.417,0.779,0.448,1.066,0.348&#10;&#9;C50.352,48.075,50.528,47.833,50.61,47.255 M44.184,54c0.117-0.629-0.109-0.905-0.221-1.038c-0.232-0.244-0.512-0.324-0.656-0.348&#10;&#9;c-1.004-0.176-1.424,1.283-0.959,1.909c0.248,0.333,0.723,0.516,1.082,0.415C44.043,54.766,44.112,54.394,44.184,54 M93.268,13.465&#10;&#9;c-0.188-0.139-0.453-0.331-0.635-0.455c-0.027-0.021-0.057-0.037-0.086-0.052c0.051,0.052,1.805,1.346,1.916,1.415&#10;&#9;C94.391,14.311,93.795,13.854,93.268,13.465" class="color c2"/></g><g transform="translate(89,72.43906542056072)translate(111.25,52.95499999999993)rotate(0)translate(-111.25,-52.95499999999993) scale(0.44491813506314837,0.44491813506314837)" opacity="1"><defs class="defs"/><path id="XMLID_1286_" fill="#FFFFFF" d="M500.046,161.981c-42.838,26.773-108.211,48.639-183.177,58.456&#10;&#9;C180.1,238.286,63.857,208.834,56.94,154.618c-5.801-45.738,68.273-94.377,173.807-119.143&#10;&#9;C136.815,60.911,72.781,104.64,77.913,145.471c6.693,51.984,122.936,79.875,259.481,62.025&#10;&#9;C401.206,199.241,458.101,182.508,500.046,161.981z M83.714,209.95c-33.467-12.717-55.109-31.459-58.902-54.662&#10;&#9;C15.218,95.715,125.214,28.334,270.461,4.909C283.179,2.9,295.673,1.338,307.944,0c-24.543,0.668-50.424,3.123-76.976,7.809&#10;&#9;C94.646,31.235-8.433,100.401,0.492,161.758c8.924,60.24,122.49,90.808,255.467,69.611&#10;&#9;C185.677,237.618,123.428,229.361,83.714,209.95z" class="color c1"/></g><g transform="translate(185.48598130841117,67.62469453616136)translate(50.53037383177568,19.26407465442947)rotate(0)translate(-50.53037383177568,-19.26407465442947) scale(0.2017700119662575,0.2017700119662575)" opacity="1"><defs class="defs"/><path fill="#FFFFFF" d="M64.405,38.73c-17.843,0-32.202,17.405-32.202,38.729c0-21.323-14.36-38.729-32.202-38.729&#10;&#9;C17.843,38.73,32.203,21.323,32.203,0C32.637,21.323,46.998,38.73,64.405,38.73z M484.334,151.436&#10;&#9;c0,10.879-7.396,20.018-16.535,20.018c9.139,0,16.535,9.139,16.535,20.018c0-10.879,7.397-20.018,16.536-20.018&#10;&#9;C491.732,171.453,484.334,162.75,484.334,151.436z M338.556,77.894c0-9.573,6.527-17.843,14.795-17.843&#10;&#9;c-8.268,0-14.795-7.833-14.795-17.841c0,9.573-6.527,17.841-14.796,17.841C332.028,60.488,338.556,68.321,338.556,77.894z&#10;&#9; M103.134,98.346c0-9.573,6.527-17.842,14.795-17.842c-8.268,0-14.795-7.833-14.795-17.842c0,9.573-6.528,17.842-14.796,17.842&#10;&#9;C96.605,80.505,103.134,88.338,103.134,98.346z M409.486,122.281c0-23.499,15.666-42.211,34.813-42.211&#10;&#9;c-19.147,0-34.813-18.712-34.813-42.21c0,23.498-15.665,42.21-34.813,42.21C393.821,80.07,409.486,99.216,409.486,122.281z" class="color c1"/></g></svg>